mastitorrents.com
  
http://mastitorrents.com/forums/index.php
  
http://thepiratebay.se/user/HDvideos/0/7

Special 26 (2013) Hindi 1-5 DVDSCR Rip XviD AC3 - (DUS)

Source : MovieClub

General
Complete name                            : H:DownloadsSpecial 26 (2013) 1-5 DVDSCR Rip XviD AC3 SUBS - (DUS)Special 26 (2013) 1-5 DVDSCR Rip - (DUS).avi
Format                                   : AVI
Format/Info                              : Audio Video Interleave
File size                                : 894 MiB
Duration                                 : 2h 19mn
Overall bit rate                         : 896 Kbps

Video
ID                                       : 0
Format                                   : MPEG-4 Visual
Format profile                           : Advanced Simple@L5
Format settings, BVOP                    : 2
Format settings, QPel                    : No
Format settings, GMC                     : No warppoints
Format settings, Matrix                  : Default (H.263)
Codec ID                                 : XVID
Codec ID/Hint                            : XviD
Duration                                 : 2h 19mn
Bit rate                                 : 825 Kbps
Width                                    : 640 pixels
Height                                   : 272 pixels
Display aspect ratio                     : 2.35:1
Frame rate                               : 23.976 fps
Color space                              : YUV
Chroma subsampling                       : 4:2:0
Bit depth                                : 8 bits
Scan type                                : Progressive
Compression mode                         : Lossy
Bits/(Pixel*Frame)                       : 0.198
Stream size                              : 822 MiB (92%)
Writing library                          : XviD 1.2.1 (UTC 2008-12-04)

Audio
ID                                       : 1
Format                                   : AC-3
Format/Info                              : Audio Coding 3
Mode extension                           : CM (complete main)
Format settings, Endianness              : Big
Codec ID                                 : 2000
Duration                                 : 2h 19mn
Bit rate mode                            : Constant
Bit rate                                 : 64.0 Kbps
Channel(s)                               : 2 channels
Channel positions                        : Front: L R
Sampling rate                            : 48.0 KHz
Bit depth                                : 16 bits
Compression mode                         : Lossy
Stream size                              : 63.8 MiB (7%)
Alignment                                : Aligned on interleaves
Interleave, duration                     : 64 ms (1.53 video frames)
Interleave, preload duration             : 192 ms
Title                                    : VTS_01_1 T80 2_0ch 192Kbps DELAY 0ms_new

Screens: 
http://i.imgur.com/l0JREK2.png 
http://i.imgur.com/ShV2pIL.png 
http://i.imgur.com/xVTc77D.png 
http://i.imgur.com/5OO3vWR.png 
http://i.imgur.com/Gij2v69.png 
http://i.imgur.com/GkbGvAC.png 
http://i.imgur.com/B8QOV0z.png 
http://i.imgur.com/wD95t5r.png 
http://i.imgur.com/sFYz8y8.png